<svg xmlns="http://www.w3.org/2000/svg" width="25.84" height="47.483" viewBox="0 0 25.84 47.483"><defs><style>.a{fill:#1c9ae7;}</style></defs><path class="a" d="M1194.658,914.171l-6.2-.01c-6.962,0-11.461,4.587-11.461,11.685v5.388h-6.232a.971.971,0,0,0-.974.969v7.806a.971.971,0,0,0,.974.968H1177v19.7a.971.971,0,0,0,.975.969h8.13a.971.971,0,0,0,.974-.969v-19.7h7.286a.971.971,0,0,0,.975-.968l0-7.806a.965.965,0,0,0-.285-.685.979.979,0,0,0-.69-.284h-7.288v-4.567c0-2.2.527-3.31,3.4-3.31h4.176a.971.971,0,0,0,.974-.968v-7.249A.972.972,0,0,0,1194.658,914.171Z" transform="translate(-1169.792 -914.161)"/></svg>