<svg xmlns="http://www.w3.org/2000/svg" width="48.451" height="47.478" viewBox="0 0 48.451 47.478"><defs><style>.a{fill:#2b74b8;}</style></defs><path class="a" d="M1119.07,961.6V940.825c-3.456-8.209-11.643,2.967-11.643,2.967V961.6h-10.835V928.954h10.835V935.2c1.319-1.74,5.325-6.242,11.643-6.242a9.853,9.853,0,0,1,1.943.193c.149.023.294.05.439.083.121.032.23.071.345.107a10.628,10.628,0,0,1,8.1,10.231V961.6Zm-37.62-.008V928.95h10.83V961.59Zm0-42.279a5.3,5.3,0,1,1,5.3,5.189A5.246,5.246,0,0,1,1081.45,919.31Z" transform="translate(-1081.45 -914.12)"/></svg>