<svg xmlns="http://www.w3.org/2000/svg" width="61.37" height="47.481" viewBox="0 0 61.37 47.481"><defs><style>.a{fill:#3aadf3;}</style></defs><path class="a" d="M1306.86,919.647a27.273,27.273,0,0,1-7.249,1.892,12.039,12.039,0,0,0,5.535-6.622,25.926,25.926,0,0,1-7.978,2.9,12.91,12.91,0,0,0-9.19-3.791c-6.966,0-12.573,5.384-12.573,11.984a11.8,11.8,0,0,0,.291,2.732,36.231,36.231,0,0,1-25.932-12.531,11.628,11.628,0,0,0-1.722,6.056,11.858,11.858,0,0,0,5.588,9.956,12.9,12.9,0,0,1-5.684-1.476v.132a12.2,12.2,0,0,0,10.08,11.772,13.16,13.16,0,0,1-3.3.394,11.675,11.675,0,0,1-2.382-.2,12.638,12.638,0,0,0,11.756,8.346,26.1,26.1,0,0,1-15.6,5.11,24.749,24.749,0,0,1-3.011-.164,36.723,36.723,0,0,0,19.3,5.376c23.151,0,35.81-18.262,35.81-34.091,0-.53-.02-1.041-.047-1.549A24.469,24.469,0,0,0,1306.86,919.647Z" transform="translate(-1245.49 -914.026)"/></svg>