<svg style="width: 20px; height: 20px;"
    xmlns="http://www.w3.org/2000/svg" width="68" height="68" viewBox="0 0 68 68">
    <g transform="translate(-1065 -648)">
        <circle style="fill:#3aadf3;" cx="34" cy="34" r="34" transform="translate(1065 648)" />
        <path style="fill:#fff;" d="M1101.339,664.209v-.04h-2.44v.04a17.991,17.991,0,0,0-17.037,16.453h-.042v2.356h.042a17.99,17.99,0,0,0,17.037,16.451v.042h2.44v-.042a17.988,17.988,0,0,0,17.036-16.451h.043v-2.356h-.043A17.99,17.99,0,0,0,1101.339,664.209Zm-8.064,3.812a18.505,18.505,0,0,0-2.869,5.573h-3.655A15.786,15.786,0,0,1,1093.275,668.021Zm-7.8,7.929h4.289a27.17,27.17,0,0,0-.6,4.712h-4.857A14.728,14.728,0,0,1,1085.475,675.95Zm-1.169,7.068h4.857a27.154,27.154,0,0,0,.6,4.712h-4.289A14.728,14.728,0,0,1,1084.307,683.018Zm2.445,7.068h3.653a18.458,18.458,0,0,0,2.871,5.573A15.778,15.778,0,0,1,1086.751,690.086ZM1098.9,697c-2.508-.647-4.668-3.249-5.978-6.916h5.978Zm0-9.273h-6.663a25.481,25.481,0,0,1-.633-4.712h7.3Zm0-7.068h-7.3a25.481,25.481,0,0,1,.633-4.712h6.663Zm0-7.068h-5.978c1.31-3.669,3.47-6.27,5.978-6.915Zm14.586,0h-3.65a18.476,18.476,0,0,0-2.873-5.573A15.778,15.778,0,0,1,1113.486,673.593Zm-12.147-6.915c2.507.646,4.668,3.247,5.978,6.915h-5.978Zm0,9.272H1108a25.594,25.594,0,0,1,.634,4.712h-7.3Zm0,7.068h7.3a25.418,25.418,0,0,1-.634,4.712h-6.662Zm0,13.985v-6.916h5.978C1106.007,693.754,1103.846,696.356,1101.339,697Zm5.623-1.344a18.54,18.54,0,0,0,2.873-5.573h3.65A15.77,15.77,0,0,1,1106.962,695.659Zm7.8-7.929h-4.289a27.166,27.166,0,0,0,.6-4.712h4.856A14.759,14.759,0,0,1,1114.763,687.73Zm-3.689-7.068a27.181,27.181,0,0,0-.6-4.712h4.289a14.759,14.759,0,0,1,1.167,4.712Z" />
    </g>
</svg>