<svg xmlns="http://www.w3.org/2000/svg" width="68" height="68" viewBox="0 0 68 68"><defs><style>.a{fill:#3aadf3;}.b{fill:#fff;}</style></defs><g transform="translate(-1066 -525)"><circle class="a" cx="34" cy="34" r="34" transform="translate(1066 525)"/><path class="b" d="M1118.714,570.118a1.743,1.743,0,0,1-.564,1.557l-5.359,5.139a3.015,3.015,0,0,1-.947.662,4.012,4.012,0,0,1-1.148.351q-.04,0-.242.019t-.524.02a18.36,18.36,0,0,1-6.668-1.5,35.572,35.572,0,0,1-5.621-2.979,41.6,41.6,0,0,1-6.689-5.451,43.154,43.154,0,0,1-4.674-5.139,36.475,36.475,0,0,1-2.982-4.536,23.992,23.992,0,0,1-1.692-3.777,19.481,19.481,0,0,1-.766-2.92,9.348,9.348,0,0,1-.161-1.927q.041-.7.04-.779a3.687,3.687,0,0,1,.363-1.11,2.925,2.925,0,0,1,.685-.915l5.359-5.178a1.8,1.8,0,0,1,1.289-.545,1.538,1.538,0,0,1,.927.292,2.74,2.74,0,0,1,.685.72l4.311,7.9a1.838,1.838,0,0,1,.2,1.363,2.4,2.4,0,0,1-.685,1.246l-1.974,1.908a.646.646,0,0,0-.141.253.935.935,0,0,0-.06.292,6.876,6.876,0,0,0,.725,1.869,17.055,17.055,0,0,0,1.491,2.278,25.605,25.605,0,0,0,2.861,3.1,26.385,26.385,0,0,0,3.224,2.784,18.689,18.689,0,0,0,2.357,1.46,6.4,6.4,0,0,0,1.45.564l.5.1a.986.986,0,0,0,.262-.058.682.682,0,0,0,.262-.136l2.3-2.258a2.517,2.517,0,0,1,1.693-.623,2.164,2.164,0,0,1,1.088.234h.04l7.777,4.439A1.965,1.965,0,0,1,1118.714,570.118Z"/></g></svg>